HIERARCHY
ROOT Hips
{
	OFFSET -80.168388 91.772041 -268.984589
	CHANNELS 6 Xposition Yposition Zposition Xrotation Yrotation Zrotation 
	JOINT RightUpLeg
	{
		OFFSET 0.103457 1.857818 10.548502
		CHANNELS 3 Xrotation Yrotation Zrotation
		JOINT RightLeg
		{
			OFFSET 43.500000 -0.000011 -0.000004
			CHANNELS 3 Xrotation Yrotation Zrotation
			JOINT RightFoot
			{
				OFFSET 42.372192 -0.000004 -0.000008
				CHANNELS 3 Xrotation Yrotation Zrotation
				JOINT RightToe
				{
					OFFSET 17.300014 0.000006 0.000001
					CHANNELS 3 Xrotation Yrotation Zrotation
					End Site
					{
						OFFSET 0.000000 0.000000 0.000000
					}
				}
			}
		}
	}
	JOINT LeftUpLeg
	{
		OFFSET 0.103457 1.857817 -10.548505
		CHANNELS 3 Xrotation Yrotation Zrotation
		JOINT LeftLeg
		{
			OFFSET 43.500046 -0.000004 0.000011
			CHANNELS 3 Xrotation Yrotation Zrotation
			JOINT LeftFoot
			{
				OFFSET 42.372257 0.000000 0.000015
				CHANNELS 3 Xrotation Yrotation Zrotation
				JOINT LeftToe
				{
					OFFSET 17.300003 -0.000000 0.000002
					CHANNELS 3 Xrotation Yrotation Zrotation
					End Site
					{
						OFFSET 0.000000 0.000000 0.000000
					}
				}
			}
		}
	}
	JOINT Spine
	{
		OFFSET 6.901961 -2.603721 -0.000001
		CHANNELS 3 Xrotation Yrotation Zrotation
		JOINT Spine1
		{
			OFFSET 12.588108 0.000002 -0.000001
			CHANNELS 3 Xrotation Yrotation Zrotation
			JOINT Spine2
			{
				OFFSET 12.343199 -0.000020 0.000006
				CHANNELS 3 Xrotation Yrotation Zrotation
				JOINT Neck
				{
					OFFSET 25.832905 0.000017 0.000000
					CHANNELS 3 Xrotation Yrotation Zrotation
					JOINT Head
					{
						OFFSET 11.766604 -0.000006 0.000004
						CHANNELS 3 Xrotation Yrotation Zrotation
						End Site
						{
							OFFSET 0.000000 0.000000 0.000000
						}
					}
				}
				JOINT RightShoulder
				{
					OFFSET 19.745903 -1.480350 6.000100
					CHANNELS 3 Xrotation Yrotation Zrotation
					JOINT RightArm
					{
						OFFSET 11.284130 -0.000016 -0.000016
						CHANNELS 3 Xrotation Yrotation Zrotation
						JOINT RightForeArm
						{
							OFFSET 33.000046 0.000004 0.000031
							CHANNELS 3 Xrotation Yrotation Zrotation
							JOINT RightHand
							{
								OFFSET 25.199999 0.000027 0.000001
								CHANNELS 3 Xrotation Yrotation Zrotation
								End Site
								{
									OFFSET 0.000000 0.000000 0.000000
								}
							}
						}
					}
				}
				JOINT LeftShoulder
				{
					OFFSET 19.746094 -1.480375 -6.000080
					CHANNELS 3 Xrotation Yrotation Zrotation
					JOINT LeftArm
					{
						OFFSET 11.284131 -0.000016 -0.000017
						CHANNELS 3 Xrotation Yrotation Zrotation
						JOINT LeftForeArm
						{
							OFFSET 33.000095 0.000009 0.000020
							CHANNELS 3 Xrotation Yrotation Zrotation
							JOINT LeftHand
							{
								OFFSET 25.199789 0.000132 0.000423
								CHANNELS 3 Xrotation Yrotation Zrotation
								End Site
								{
									OFFSET 0.000000 0.000000 0.000000
								}
							}
						}
					}
				}
			}
		}
	}
}
MOTION
Frames: 5
Frame Time: 0.033333
188.226807 78.666786 549.961487 94.061042 2.497568 -86.488527 154.573779 -10.280394 -179.432034 -109.094104 5.248107 -9.490039 75.505071 5.777386 -2.519181 21.454555 0.003104 0.000018 167.728218 -16.744904 -174.158240 -49.296580 3.375938 5.201760 106.275093 -3.566144 -13.033480 21.454553 -0.003090 -0.000001 10.266322 1.828669 -1.134702 10.490926 3.752662 -2.099835 10.172329 3.739776 -2.122486 0.298367 10.424261 7.505593 -20.823707 -16.166923 16.131228 -170.649203 -70.731410 -10.995483 14.360299 59.884899 21.962396 -94.274874 -2.856832 2.737814 1.318841 3.685278 54.479221 -170.874503 73.523223 10.811034 10.773538 -55.999246 -25.650181 -95.293543 2.994839 -2.749773 -3.843487 4.850557 -30.375528 
186.244507 79.976303 545.990784 93.242860 3.444818 -89.401125 148.175025 -7.824101 -177.004844 -109.648100 5.139235 -9.813072 76.827655 6.280105 -1.643028 21.454560 0.003105 0.000011 172.753188 -14.838902 -177.701824 -44.143106 3.188653 4.199377 105.255688 -3.035131 -12.366676 21.454553 -0.003089 -0.000001 10.149446 1.662784 -0.477780 10.278622 3.361404 -0.806169 9.959948 3.356342 -0.826476 0.216235 9.652034 6.707228 -20.477421 -16.210209 15.137475 -168.243815 -70.506322 -13.474664 19.874604 58.759387 27.750394 -91.381845 -3.746837 2.670549 -1.626062 1.503517 68.540231 -175.660513 74.088455 5.906992 2.762099 -58.643833 -19.713261 -97.400198 2.824499 -2.831568 -4.846322 3.780714 -32.586194 
184.266907 81.846497 541.571472 91.080948 4.924070 -92.904902 142.739124 -5.282393 -176.286062 -105.753308 4.702477 -8.268648 76.257669 5.066875 -2.243518 21.454562 0.003109 0.000019 177.823756 -11.087097 177.803853 -37.208098 3.343156 3.340126 101.756397 -2.804432 -10.718329 21.454551 -0.003102 0.000002 9.758276 1.080755 0.399540 9.513591 2.125030 0.886736 9.195291 2.130222 0.873868 -0.204254 8.433152 5.632667 -19.271502 -15.445873 13.333854 -164.339515 -70.473509 -17.499585 23.974907 55.678100 34.741706 -88.882105 -4.911037 2.640367 -5.208824 -2.490517 63.172952 -179.464313 75.388165 2.030015 -1.534504 -60.830382 -17.655255 -100.338204 2.449069 -2.935790 -5.618135 2.615702 -33.439848 
182.419098 84.019691 536.769470 88.702164 6.464721 -96.190667 138.899191 -3.476495 -176.238210 -98.102683 3.894299 -6.019983 76.638991 3.329254 -2.961816 21.454563 0.003102 0.000021 -178.698717 -6.746597 174.560224 -31.434925 3.769654 3.021894 92.991161 -3.318143 -9.372600 21.454550 -0.003087 -0.000001 9.299120 0.391266 1.230446 8.593046 0.690197 2.486531 8.275245 0.705042 2.482318 -1.371955 6.868431 4.688100 -17.522162 -13.920060 11.286541 -160.501700 -70.519203 -21.454597 26.507285 51.949094 40.033282 -86.769740 -5.485076 2.586592 -8.822418 -8.775206 49.849415 177.414655 76.773170 -1.130987 -3.379181 -62.092457 -18.294892 -103.317908 2.101783 -3.043265 -6.223124 1.990124 -34.449818 
180.817001 85.940460 531.909119 85.865846 7.804125 -98.826779 136.596666 -1.492495 -176.689617 -87.491957 2.630784 -6.369824 76.633397 3.749130 -2.594911 21.454562 0.003100 0.000016 -176.528206 -1.961603 173.711136 -27.513926 4.035647 2.520914 83.855366 -3.437377 -7.615081 21.454553 -0.003080 -0.000003 8.925310 -0.380779 1.763360 7.824590 -0.879684 3.497036 7.507100 -0.858697 3.502266 -3.479325 5.198393 4.079362 -15.553051 -12.041244 9.478071 -158.012533 -70.643212 -24.017213 28.046398 48.957512 42.624800 -84.883248 -6.157232 2.550080 -11.699821 -13.354746 43.899142 175.058418 77.896620 -3.506952 -4.423596 -62.276340 -19.972206 -105.318614 1.974444 -3.122317 -7.034650 2.599155 -36.274441 
